<?xml version="1.0" standalone="no"?>
<!DOCTYPE svg PUBLIC "-//W3C//DTD SVG 20010904//EN"
 "http://www.w3.org/TR/2001/REC-SVG-20010904/DTD/svg10.dtd">
<svg version="1.0" xmlns="http://www.w3.org/2000/svg"
 width="1000.000000pt" height="1000.000000pt" viewBox="0 0 1000.000000 1000.000000"
 preserveAspectRatio="xMidYMid meet">

<g transform="translate(0.000000,1000.000000) scale(0.100000,-0.100000)"
fill="#ffebcd" stroke="none">
<path d="M2360 8872 l-695 -3 -432 -869 c-238 -477 -433 -871 -433 -874 0 -9
1908 -7 1914 2 3 5 9 33 14 63 5 30 31 151 56 269 26 118 51 235 56 260 5 25
19 88 30 140 11 52 25 115 30 140 5 25 17 77 25 115 9 39 20 90 25 115 5 25
19 88 30 140 11 52 25 115 30 140 5 25 16 77 25 115 8 39 22 102 29 140 8 39
17 77 21 86 4 11 0 18 -12 20 -10 2 -331 3 -713 1z"/>
<path d="M6926 8872 c-12 -3 -15 -9 -11 -20 4 -10 13 -46 20 -82 8 -36 28
-130 46 -210 17 -80 35 -163 39 -185 12 -59 34 -161 70 -325 18 -80 36 -165
40 -190 4 -25 20 -99 34 -165 15 -66 33 -151 42 -190 8 -38 19 -88 24 -110 15
-66 40 -187 48 -230 l8 -40 957 -3 c526 -1 957 1 957 4 0 4 -195 397 -432 875
l-433 868 -696 3 c-382 2 -703 1 -713 0z"/>
<path d="M3310 8818 c-24 -111 -42 -195 -55 -253 -7 -33 -21 -96 -30 -140 -9
-44 -20 -98 -25 -120 -5 -22 -16 -74 -25 -115 -9 -41 -22 -102 -30 -135 -7
-33 -21 -96 -30 -140 -9 -44 -20 -98 -25 -120 -17 -77 -54 -253 -87 -405 -8
-41 -21 -102 -29 -135 -7 -33 -16 -77 -20 -97 l-6 -38 971 0 971 0 0 875 0
875 -784 0 -784 0 -12 -52z"/>
<path d="M5110 7995 l0 -875 976 0 c572 0 973 4 970 9 -5 8 -41 170 -76 341
-5 25 -18 88 -30 140 -48 219 -73 338 -80 381 -5 25 -13 64 -19 85 -6 21 -29
127 -51 234 -22 107 -47 222 -54 255 -8 33 -22 96 -31 140 -9 44 -21 99 -27
123 l-11 42 -783 0 -784 0 0 -875z"/>
<path d="M733 6893 c-19 -7 -18 -559 2 -673 72 -430 382 -741 820 -822 300
-55 628 55 855 286 81 83 131 155 186 271 82 172 95 264 92 642 l-3 298 -970
1 c-533 0 -976 -1 -982 -3z"/>
<path d="M2919 6878 c-15 -28 -11 -483 6 -611 58 -440 356 -769 781 -864 100
-22 291 -22 390 0 314 71 553 258 689 542 90 188 105 282 105 664 0 258 -1
280 -17 285 -10 3 -451 5 -981 4 -899 -2 -964 -4 -973 -20z"/>
<path d="M5123 6893 c-17 -6 -18 -527 -2 -640 47 -335 244 -615 534 -760 149
-75 286 -108 450 -107 325 1 630 166 810 439 78 118 121 222 152 370 18 89 31
653 15 681 -10 18 -45 19 -979 20 -532 1 -974 -1 -980 -3z"/>
<path d="M7313 6884 c-3 -7 -3 -161 0 -341 4 -290 7 -337 25 -403 55 -205 139
-348 284 -486 213 -204 530 -306 808 -259 441 73 758 385 835 820 16 86 22
674 8 676 -5 1 -446 3 -981 4 -800 2 -975 0 -979 -11z"/>
<path d="M2785 5816 c-71 -148 -262 -360 -418 -463 -69 -45 -183 -100 -287
-138 -204 -75 -583 -70 -775 11 -19 8 -37 14 -40 14 -3 0 -5 -905 -5 -2010 0
-1765 2 -2015 15 -2040 32 -62 12 -60 547 -60 l488 0 0 1560 0 1559 32 37 c17
20 43 40 57 45 15 6 358 10 864 9 930 0 873 4 922 -67 l25 -38 0 -1552 0
-1553 2230 0 2230 0 32 29 33 29 3 2026 c1 1114 0 2026 -3 2026 -3 0 -22 -7
-42 -15 -107 -45 -203 -59 -398 -59 -175 0 -198 2 -295 27 -127 33 -271 96
-371 163 -153 101 -329 297 -410 454 l-23 46 -32 -62 c-67 -131 -201 -287
-336 -390 -67 -52 -222 -144 -241 -144 -7 0 -17 -4 -22 -9 -14 -12 -99 -40
-190 -62 -103 -25 -321 -35 -440 -20 -175 22 -358 91 -513 195 -145 97 -331
304 -394 437 -13 27 -25 49 -28 49 -3 0 -11 -15 -19 -32 -32 -75 -132 -210
-226 -303 -172 -172 -338 -266 -590 -331 -101 -26 -407 -27 -520 -1 -87 20
-194 55 -209 69 -6 4 -15 8 -22 8 -7 0 -45 19 -86 42 -208 119 -398 309 -492
492 l-32 63 -19 -41z m4964 -1487 c20 -11 45 -32 56 -47 20 -27 20 -43 20
-889 l0 -862 -40 -41 -39 -40 -1133 0 -1134 0 -42 39 -42 40 -3 853 c-2 816
-1 855 16 888 11 19 37 45 58 57 l39 23 1104 0 c1097 0 1103 0 1140 -21z"/>
</g>
</svg>
