<?xml version="1.0" standalone="no"?>
<!DOCTYPE svg PUBLIC "-//W3C//DTD SVG 20010904//EN"
 "http://www.w3.org/TR/2001/REC-SVG-20010904/DTD/svg10.dtd">
<svg version="1.0" xmlns="http://www.w3.org/2000/svg"
 width="1289.000000pt" height="1529.000000pt" viewBox="0 0 1289.000000 1529.000000"
 preserveAspectRatio="xMidYMid meet">

<g transform="translate(0.000000,1529.000000) scale(0.100000,-0.100000)"
fill="#dc143c" stroke="none">
<path d="M8700 15254 c-95 -15 -157 -32 -165 -44 -3 -6 -13 -10 -21 -10 -19 0
-160 -66 -198 -93 l-29 -20 7 -261 c4 -144 8 -283 10 -311 2 -27 7 -103 11
-167 3 -65 8 -128 10 -140 6 -38 19 -221 18 -248 -3 -89 -14 -259 -17 -280 -2
-14 -7 -67 -11 -118 -3 -51 -8 -101 -10 -110 -1 -9 -6 -53 -9 -97 -4 -44 -9
-91 -11 -105 -2 -14 -6 -43 -9 -65 -3 -22 -11 -74 -17 -115 -6 -41 -12 -93
-15 -115 -2 -22 -5 -47 -7 -55 -4 -14 -14 -83 -22 -140 -1 -14 -11 -65 -20
-115 -10 -49 -19 -101 -20 -115 -1 -14 -5 -34 -8 -45 -4 -11 -9 -33 -11 -50
-3 -16 -10 -52 -16 -80 -15 -75 -30 -147 -35 -175 -7 -36 -37 -162 -43 -180
-3 -8 -6 -22 -7 -30 -1 -8 -10 -44 -20 -80 -10 -36 -19 -72 -20 -80 -1 -8 -5
-22 -8 -30 -3 -8 -8 -28 -11 -45 -9 -43 -11 -49 -19 -62 -5 -7 -6 -17 -2 -22
3 -5 1 -12 -4 -15 -7 -5 -23 -61 -26 -91 0 -5 -3 -15 -7 -20 -3 -6 -9 -27 -13
-47 -4 -20 -13 -39 -21 -42 -14 -6 -167 214 -268 386 -76 131 -246 483 -246
511 0 8 -3 17 -7 21 -12 12 -113 309 -138 406 -27 105 -71 325 -81 405 -3 22
-9 67 -14 100 -31 205 -34 774 -5 936 3 13 7 48 9 76 2 29 7 57 11 63 3 5 3
10 -2 10 -9 -1 -268 -449 -268 -465 0 -6 -13 -31 -28 -57 -15 -26 -27 -52 -27
-58 0 -6 -9 -28 -19 -48 -24 -45 -42 -87 -74 -172 -35 -92 -40 -104 -43 -115
-1 -5 -14 -46 -29 -90 -15 -44 -28 -84 -29 -90 -2 -5 -6 -17 -9 -25 -10 -24
-70 -253 -72 -277 -2 -11 -6 -29 -9 -40 -3 -10 -8 -34 -11 -53 -3 -19 -8 -42
-10 -50 -2 -8 -7 -35 -10 -59 -3 -23 -7 -46 -9 -50 -2 -3 -7 -38 -11 -76 -4
-39 -9 -83 -12 -100 -3 -16 -7 -43 -10 -60 -3 -16 -6 -190 -8 -385 -5 -620
-14 -943 -27 -951 -7 -5 -22 14 -41 49 -57 111 -140 267 -158 297 -10 17 -26
44 -35 60 -9 17 -29 44 -43 60 -14 17 -42 51 -61 75 -19 24 -40 48 -45 54 -9
10 -77 94 -98 121 -4 5 -15 20 -25 32 -10 12 -27 34 -38 49 -10 15 -31 41 -45
58 -25 31 -132 172 -159 212 -82 118 -104 150 -110 154 -3 3 -62 91 -131 195
-104 158 -209 344 -209 369 0 3 -10 28 -21 54 -28 61 -43 99 -59 142 -6 19
-16 44 -20 55 -5 11 -14 38 -20 60 -6 22 -16 49 -21 60 -22 49 -122 450 -121
488 1 9 -3 17 -7 17 -10 0 -54 -92 -81 -170 -6 -19 -18 -47 -26 -62 -9 -16
-12 -28 -9 -28 3 0 0 -10 -7 -22 -7 -13 -13 -27 -14 -33 -1 -10 -8 -31 -24
-72 -5 -12 -16 -51 -25 -85 -9 -35 -19 -70 -22 -78 -8 -21 -11 -31 -18 -65 -3
-16 -12 -52 -19 -80 -13 -45 -19 -77 -32 -155 -3 -14 -7 -36 -9 -50 -12 -60
-14 -74 -20 -140 -3 -38 -8 -80 -11 -92 -9 -42 -18 -231 -18 -376 0 -173 -21
-146 200 -255 22 -11 58 -32 80 -48 21 -15 84 -55 139 -89 114 -70 158 -98
200 -133 17 -13 45 -32 63 -41 17 -9 32 -21 32 -26 0 -5 8 -11 18 -14 9 -3 29
-16 44 -28 14 -13 41 -34 58 -48 18 -14 44 -34 58 -45 111 -88 294 -338 384
-525 70 -147 88 -193 125 -330 14 -52 29 -99 33 -103 4 -5 32 3 61 16 112 52
147 66 239 97 90 30 106 35 148 44 9 2 37 10 62 17 25 7 48 12 52 11 4 -1 37
5 72 13 36 8 69 14 73 13 4 -1 36 2 71 6 104 13 400 7 482 -9 43 -9 156 -27
167 -27 5 0 13 -3 18 -8 6 -4 26 -11 45 -15 19 -4 46 -13 60 -20 44 -22 105
-48 117 -51 22 -4 348 -196 366 -215 10 -10 21 -19 26 -19 4 0 20 -10 34 -22
15 -13 43 -36 63 -53 42 -35 131 -122 189 -186 148 -162 281 -394 364 -634 41
-119 75 -267 97 -415 10 -70 11 -83 13 -111 l1 -26 104 28 c57 16 119 31 138
34 18 3 40 8 49 11 9 2 34 7 55 9 22 2 50 7 64 10 132 28 505 23 660 -10 14
-2 50 -10 80 -16 30 -6 62 -14 70 -17 19 -7 18 -6 70 -21 25 -6 50 -13 55 -15
6 -2 13 -4 18 -5 4 0 21 -8 37 -16 17 -9 30 -13 30 -9 0 3 16 -4 35 -16 19
-12 35 -19 35 -15 0 3 20 -6 43 -20 24 -14 49 -25 55 -25 14 0 194 -105 252
-147 25 -18 65 -48 90 -65 58 -43 65 -48 129 -102 61 -51 69 -54 93 -28 8 9
29 27 44 39 83 64 220 191 413 384 192 193 267 274 371 399 19 23 42 49 50 57
13 14 115 141 173 216 12 16 30 37 39 47 9 10 24 33 33 49 8 17 20 31 25 31 5
0 11 8 15 19 3 10 17 31 30 45 14 15 31 39 39 54 8 15 24 38 36 52 11 13 33
46 47 72 14 26 29 48 34 48 4 0 32 45 63 99 31 55 60 101 64 103 11 4 194 319
189 325 -2 2 -25 -16 -50 -39 -82 -77 -143 -133 -181 -163 -21 -16 -47 -39
-60 -50 -12 -11 -37 -31 -55 -45 -17 -14 -42 -33 -54 -44 -42 -35 -242 -183
-266 -196 -14 -7 -30 -17 -35 -22 -6 -5 -40 -28 -76 -51 -36 -23 -71 -47 -78
-54 -7 -7 -20 -13 -27 -13 -7 0 -20 -6 -27 -14 -16 -16 -131 -81 -170 -97 -16
-6 -28 -14 -28 -18 0 -4 -18 -13 -40 -20 -22 -6 -40 -16 -40 -21 0 -6 -4 -10
-10 -10 -5 0 -49 -19 -97 -42 -49 -23 -90 -43 -93 -44 -8 -2 -81 -33 -125 -53
-22 -10 -65 -27 -95 -37 -30 -10 -57 -21 -60 -25 -6 -6 -183 -67 -220 -75 -14
-2 -49 -14 -77 -24 -93 -34 -283 -83 -318 -81 -2 0 -19 -5 -37 -10 -41 -12
-224 -51 -258 -54 -28 -3 -88 -13 -135 -21 -16 -3 -43 -7 -60 -8 -16 -2 -54
-6 -82 -11 -50 -7 -53 -6 -53 13 0 12 5 34 11 49 40 99 68 177 75 208 4 17 10
35 14 40 4 6 11 24 15 40 12 45 12 45 35 115 12 36 26 74 31 85 4 11 20 65 34
120 14 55 29 107 32 115 10 24 11 30 29 115 3 17 11 36 16 43 6 6 8 12 5 12
-3 0 3 30 13 67 10 37 17 71 14 74 -2 4 0 10 5 13 4 3 12 29 16 58 8 52 10 61
15 76 2 4 4 12 5 17 1 6 4 24 8 40 4 17 10 41 12 55 15 76 38 198 41 220 4 22
10 55 20 110 2 8 6 42 9 75 4 33 9 62 10 65 2 3 6 30 10 60 3 30 8 66 10 80 2
14 7 54 10 90 3 36 8 76 10 90 4 24 10 79 20 190 2 30 7 105 10 165 3 61 8
148 10 195 7 134 4 626 -4 740 -1 10 -7 6 -19 -11 -9 -14 -39 -59 -67 -99 -27
-40 -58 -85 -67 -99 -21 -32 -44 -61 -80 -104 -16 -17 -28 -34 -28 -38 0 -3
-10 -18 -22 -32 -13 -14 -32 -37 -43 -51 -11 -14 -36 -44 -55 -66 -19 -22 -44
-52 -55 -66 -26 -34 -415 -429 -415 -421 0 3 -15 -9 -32 -26 -18 -18 -55 -50
-83 -72 -27 -22 -59 -48 -69 -57 -11 -10 -38 -30 -60 -45 -23 -15 -43 -31 -46
-35 -5 -6 -126 -92 -180 -128 -8 -5 -44 -29 -80 -52 -36 -23 -67 -45 -70 -48
-9 -11 -238 -140 -248 -140 -6 0 -12 -4 -14 -8 -4 -10 -291 -152 -307 -152 -6
0 -11 4 -11 10 0 9 21 70 40 115 5 11 14 38 21 60 7 22 16 45 20 50 5 8 20 54
23 75 1 6 34 97 44 120 3 8 7 20 7 25 1 6 5 19 9 30 5 11 15 38 23 60 8 22 17
48 19 58 10 42 14 58 47 157 19 58 45 141 56 185 12 44 25 87 28 95 6 16 9 24
17 55 3 11 28 103 56 205 54 198 57 209 66 255 3 17 8 37 11 45 7 18 6 10 22
90 7 36 15 72 19 80 7 20 17 63 28 130 3 14 9 39 14 55 5 17 12 46 15 65 3 19
8 43 11 53 3 11 7 29 9 40 3 21 19 105 30 157 9 39 35 181 41 220 3 19 7 42 9
50 3 8 7 33 10 55 3 22 10 63 15 90 5 28 11 66 14 85 11 80 19 136 22 155 3
11 7 40 10 65 2 25 9 70 14 100 5 30 12 82 15 115 4 32 8 62 10 65 1 3 6 43
10 90 4 47 9 96 11 110 1 14 6 52 9 85 4 33 8 74 10 90 2 17 6 73 10 125 3 52
8 113 10 135 3 22 7 81 11 130 3 50 8 91 9 93 10 11 -93 88 -192 145 -78 45
-86 47 -150 45 -38 -1 -102 -7 -143 -14z"/>
<path d="M4227 11824 c-1 -2 -25 -4 -52 -5 -28 -1 -70 -5 -95 -10 -78 -14
-115 -20 -130 -21 -27 0 -205 -50 -210 -58 -3 -5 -18 -10 -35 -14 -36 -6 -143
-46 -201 -75 -22 -11 -52 -23 -67 -26 -15 -4 -27 -11 -27 -16 0 -5 -6 -9 -13
-9 -30 0 -118 -71 -237 -191 -69 -69 -134 -137 -145 -152 -11 -15 -30 -38 -42
-52 -13 -15 -23 -29 -23 -33 0 -4 -11 -20 -25 -37 -30 -33 -125 -197 -125
-213 0 -6 -9 -26 -19 -44 -11 -18 -27 -58 -36 -88 -9 -30 -21 -64 -25 -75 -13
-29 -32 -105 -37 -145 -2 -19 -7 -48 -12 -65 -21 -80 -19 -417 4 -525 3 -14 7
-42 10 -62 3 -21 14 -70 25 -110 11 -40 20 -77 20 -81 0 -9 -92 -3 -108 7 -37
22 -514 28 -617 7 -33 -7 -71 -14 -85 -17 -78 -15 -331 -93 -340 -105 -3 -3
-15 -10 -28 -13 -19 -6 -168 -114 -208 -151 -7 -5 -42 -37 -79 -70 -37 -33
-83 -77 -103 -99 -97 -102 -112 -119 -112 -128 0 -5 -4 -7 -9 -4 -4 3 -13 -6
-19 -19 -7 -14 -16 -25 -21 -25 -5 0 -14 -14 -21 -30 -7 -17 -18 -34 -25 -38
-17 -10 -151 -241 -180 -311 -25 -60 -36 -90 -41 -106 -1 -5 -12 -41 -22 -80
-36 -126 -50 -250 -46 -405 2 -80 5 -156 8 -170 2 -14 7 -41 9 -60 3 -19 10
-53 15 -75 6 -22 13 -51 16 -65 8 -39 45 -163 55 -185 5 -11 28 -67 52 -125
38 -92 79 -177 148 -306 l20 -36 -152 -77 c-142 -72 -156 -81 -242 -168 -91
-93 -102 -105 -165 -182 -19 -24 -45 -55 -57 -69 -13 -14 -23 -29 -23 -33 0
-5 -9 -18 -19 -28 -24 -24 -164 -263 -192 -328 -62 -140 -114 -324 -127 -443
-11 -108 -5 -308 13 -405 55 -294 239 -647 487 -936 52 -61 54 -64 36 -84 -7
-8 -29 -33 -48 -55 -19 -23 -45 -53 -57 -67 -13 -14 -23 -30 -23 -34 0 -5 -10
-19 -21 -30 -28 -28 -160 -258 -189 -329 -36 -90 -37 -92 -59 -160 -20 -64
-36 -138 -46 -210 -3 -19 -7 -46 -10 -60 -15 -75 -1 -410 21 -481 2 -10 6 -30
8 -45 13 -99 52 -202 121 -319 13 -22 31 -53 40 -70 71 -126 292 -379 412
-472 126 -97 293 -203 321 -203 6 0 23 -6 39 -14 26 -13 81 -37 93 -41 3 -1
19 -5 35 -10 17 -4 36 -12 43 -18 7 -5 15 -7 19 -4 3 4 11 3 17 -2 6 -5 31
-12 56 -16 24 -4 47 -8 51 -10 5 -4 17 -6 94 -19 117 -20 360 -26 509 -13 49
4 93 4 97 0 4 -5 10 -46 13 -93 7 -107 15 -178 22 -210 4 -14 8 -38 10 -54 6
-43 43 -176 60 -213 8 -17 14 -36 14 -42 0 -6 4 -19 10 -29 5 -9 28 -57 51
-107 23 -49 57 -114 75 -143 19 -29 34 -55 34 -58 0 -5 22 -35 93 -129 66 -87
133 -155 192 -193 22 -14 45 -31 52 -38 14 -13 328 -195 340 -197 4 0 35 -13
68 -27 33 -15 94 -37 135 -49 41 -13 82 -25 90 -29 20 -7 25 -8 96 -21 185
-34 393 -33 565 3 71 15 271 77 279 86 3 3 21 12 40 20 74 28 250 128 325 182
104 76 192 144 197 152 5 7 20 4 44 -9 21 -11 40 -19 43 -18 3 1 29 -10 56
-24 28 -14 67 -34 88 -45 21 -11 47 -21 57 -23 10 -2 36 -15 59 -29 23 -15 41
-24 41 -21 0 3 12 -1 28 -9 15 -8 43 -17 62 -20 19 -3 49 -8 65 -11 65 -11 93
-15 160 -20 121 -11 296 -12 390 -3 50 5 99 9 110 10 34 2 188 37 235 54 57
20 193 77 200 84 3 3 34 20 70 39 35 19 69 38 75 43 30 25 55 45 75 58 30 20
199 188 230 229 14 18 32 40 40 49 9 10 28 40 44 67 16 28 35 55 41 60 7 6 24
33 38 60 14 28 35 70 48 95 54 106 100 209 120 275 7 22 16 45 20 50 3 6 9 22
13 38 5 21 12 27 34 27 15 0 39 -8 52 -17 14 -10 26 -17 28 -15 4 4 56 -10 67
-18 6 -4 35 -13 65 -20 30 -7 61 -17 68 -23 6 -5 12 -7 12 -4 0 3 15 1 33 -3
17 -5 46 -11 62 -14 78 -13 99 -17 105 -21 10 -6 207 -19 295 -18 88 0 226 10
265 19 14 3 39 7 55 9 93 10 273 58 285 74 3 4 34 22 70 40 66 33 181 100 190
110 3 3 25 20 50 36 25 16 53 38 63 49 9 10 17 17 17 14 0 -14 177 156 230
221 19 24 45 55 57 69 13 15 23 30 23 35 0 4 9 16 19 26 23 23 101 155 101
171 0 6 8 28 19 48 40 80 69 156 60 158 -2 0 2 8 10 18 8 9 11 19 8 23 -4 3
-3 11 2 17 8 10 13 29 27 111 3 17 7 36 10 43 18 54 26 403 14 581 l-5 65 40
8 c141 30 375 98 375 109 0 5 7 9 17 9 16 0 243 108 253 121 3 3 16 12 29 19
14 7 31 18 39 24 28 21 267 262 297 300 17 20 40 48 52 62 12 15 25 35 28 45
4 11 10 19 15 19 5 0 22 24 39 53 17 30 44 71 61 92 16 21 30 45 30 53 0 8 14
37 31 65 17 28 32 58 34 68 2 10 10 28 17 41 7 13 13 28 14 33 0 6 4 19 8 30
29 76 36 98 46 151 6 32 13 69 15 81 2 13 7 42 11 65 11 69 6 265 -10 363 -47
290 -172 561 -393 857 -40 54 -73 101 -73 105 0 5 31 40 68 78 64 67 102 111
140 163 9 13 24 32 33 42 10 10 30 40 45 66 15 27 38 60 51 73 13 13 26 36 30
50 3 14 21 53 41 86 19 33 33 61 32 63 -2 3 18 59 30 82 4 9 11 31 15 50 4 19
10 39 13 45 3 5 7 16 8 25 0 8 6 33 12 55 22 83 26 135 26 320 -1 168 -4 205
-28 320 -15 71 -31 134 -35 140 -4 5 -13 30 -20 55 -6 25 -16 54 -20 65 -5 11
-19 45 -31 75 -32 78 -113 193 -245 345 -94 110 -266 273 -314 299 -9 5 -25
17 -36 26 -29 26 -262 160 -278 160 -7 0 -21 6 -32 14 -11 7 -33 17 -50 21
-16 5 -32 9 -35 10 -112 34 -119 36 -240 56 -63 10 -245 13 -325 5 -22 -2 -67
-9 -100 -16 -33 -7 -67 -12 -75 -12 -20 0 -132 -29 -145 -38 -5 -4 -41 -17
-80 -29 -38 -12 -78 -26 -87 -32 -10 -5 -25 -9 -33 -9 -8 0 -15 -4 -15 -10 0
-5 -6 -10 -13 -10 -16 0 -305 -147 -317 -161 -6 -7 -46 -29 -53 -29 -11 0 -16
32 -7 54 4 13 12 54 15 92 4 38 11 91 15 119 12 79 4 400 -13 496 -58 325
-219 628 -452 849 -119 113 -237 208 -312 250 -24 13 -43 27 -43 31 0 7 -105
70 -124 74 -6 1 -36 9 -66 18 -30 9 -71 19 -90 22 -19 3 -48 10 -65 15 -16 5
-50 12 -75 15 -25 4 -58 9 -75 12 -133 22 -381 17 -547 -12 -82 -14 -318 -86
-318 -97 0 -4 -7 -8 -16 -8 -21 0 -164 -69 -257 -124 -67 -40 -136 -87 -193
-134 -12 -9 -32 -24 -44 -32 -13 -8 -32 -24 -44 -35 -43 -39 -45 -33 -44 118
1 78 -2 167 -6 197 -11 82 -16 113 -21 130 -3 8 -7 31 -9 50 -6 48 -58 206
-86 260 -35 69 -172 270 -247 362 -101 124 -275 292 -357 343 -17 11 -35 24
-41 31 -15 16 -170 104 -184 104 -6 0 -22 7 -35 15 -13 9 -34 18 -46 20 -12 2
-27 8 -34 13 -9 7 -48 21 -76 26 -3 1 -10 4 -15 8 -10 6 -118 28 -165 33 -14
2 -25 4 -25 5 0 6 -252 19 -258 14z m-117 -721 c70 -41 170 -121 231 -185 148
-155 183 -366 94 -573 -23 -53 -105 -195 -125 -215 -8 -9 -24 -28 -35 -43 -10
-14 -33 -32 -50 -39 -16 -6 -32 -15 -35 -19 -3 -4 -48 -22 -100 -39 -77 -27
-112 -33 -185 -34 -88 -1 -161 8 -194 23 -122 58 -161 83 -230 151 -72 70 -79
81 -105 160 -41 121 -52 186 -51 281 1 58 9 103 24 144 12 33 23 68 26 79 7
29 81 120 143 176 72 64 68 61 127 95 28 16 53 33 56 37 5 8 21 10 174 23 39
3 86 9 105 14 39 9 65 2 130 -36z m3036 -1314 c21 -13 46 -29 54 -36 8 -7 43
-33 77 -58 112 -83 191 -189 219 -298 22 -83 24 -131 9 -202 -14 -64 -72 -201
-97 -225 -8 -8 -23 -28 -33 -44 -22 -34 -62 -79 -130 -151 -55 -57 -83 -68
-220 -90 -104 -17 -191 -12 -310 18 -33 8 -155 86 -188 120 -98 100 -192 310
-188 420 2 65 31 190 57 243 13 28 24 56 24 62 0 6 11 23 25 38 14 15 25 31
25 37 0 13 109 115 131 122 11 4 19 10 19 15 0 5 17 14 38 21 20 6 42 16 49
21 20 16 146 49 208 54 33 3 61 7 63 9 4 4 118 -47 168 -76z m-5004 -875 c14
-7 28 -17 30 -21 1 -5 22 -20 44 -35 59 -38 209 -183 244 -235 70 -104 101
-207 95 -313 -5 -78 -10 -96 -50 -175 -45 -88 -69 -119 -176 -225 -110 -109
-154 -139 -215 -147 -115 -15 -334 -3 -371 20 -7 5 -22 10 -33 12 -30 6 -133
69 -166 101 -39 39 -77 100 -97 154 -44 123 -51 164 -51 307 l0 142 39 77 c42
83 64 112 140 187 80 78 156 117 305 156 56 14 231 11 262 -5z m2702 -118 c24
-14 45 -23 48 -21 2 3 23 -8 45 -23 23 -15 67 -44 98 -65 60 -40 176 -151 211
-202 11 -16 33 -61 49 -100 26 -65 27 -77 22 -170 -3 -68 -11 -114 -25 -145
-30 -69 -108 -201 -114 -194 -4 3 -9 -4 -13 -15 -12 -38 -167 -190 -200 -196
-137 -25 -351 -26 -430 -1 -130 40 -233 124 -290 236 -77 153 -115 414 -72
504 9 20 25 53 35 73 9 20 27 48 40 61 12 14 22 28 22 33 0 6 49 56 110 113
40 37 135 81 225 106 135 36 185 38 239 6z m-3209 -2811 c25 -15 45 -30 45
-34 0 -4 15 -14 33 -23 37 -18 63 -40 156 -128 76 -72 129 -150 156 -225 33
-93 27 -246 -13 -321 -6 -11 -16 -33 -22 -50 -6 -18 -19 -40 -29 -51 -10 -10
-26 -31 -36 -47 -45 -68 -185 -210 -232 -234 -84 -43 -321 -46 -423 -5 -8 3
-21 7 -27 9 -18 3 -175 94 -193 111 -8 7 -27 24 -42 37 -25 23 -78 117 -78
140 0 6 -7 24 -15 40 -20 37 -27 81 -31 196 -4 116 10 181 61 284 36 74 48 91
103 153 12 14 22 29 22 32 0 11 84 58 125 71 22 7 42 16 45 20 6 8 124 38 165
43 17 1 65 4 107 5 69 3 83 0 123 -23z m2744 -246 c50 -28 91 -55 91 -59 0 -5
8 -11 18 -14 28 -9 156 -135 196 -193 73 -107 100 -250 70 -369 -30 -115 -104
-225 -244 -363 -82 -81 -112 -97 -192 -107 -308 -39 -533 64 -637 292 -13 27
-27 58 -32 69 -23 48 -56 200 -52 234 7 54 41 171 54 187 6 8 8 14 4 14 -4 0
10 30 31 67 31 57 95 129 158 180 63 52 248 108 368 111 76 3 78 2 167 -49z
m-2374 -1992 c11 -10 43 -35 71 -55 270 -194 382 -417 321 -637 -6 -22 -11
-42 -11 -45 -2 -9 -69 -125 -82 -140 -44 -53 -188 -193 -235 -228 l-57 -43
-123 -2 c-129 -2 -206 6 -284 27 -14 4 -63 25 -101 43 -59 28 -151 127 -182
196 -26 57 -32 73 -43 117 -18 69 -20 85 -24 222 l-5 128 43 80 c97 184 217
283 402 335 105 29 279 30 310 2z"/>
<path d="M12850 8572 c0 -7 -5 -12 -11 -12 -6 0 -34 -12 -63 -26 -127 -64
-475 -159 -661 -180 -22 -2 -49 -6 -60 -8 -36 -7 -119 -17 -180 -21 -82 -6
-453 -6 -490 0 -16 2 -55 7 -85 10 -72 7 -119 12 -152 19 -16 2 -28 3 -28 0 0
-3 20 -35 44 -72 104 -160 150 -251 160 -316 4 -21 9 -50 12 -63 21 -80 116
-222 137 -205 7 5 30 15 52 22 71 22 349 155 452 216 39 23 74 40 77 36 3 -3
6 0 6 6 0 7 6 12 14 12 8 0 21 6 28 13 7 7 36 26 63 41 58 33 158 98 165 106
3 3 22 17 43 29 21 13 86 59 144 103 109 82 112 84 167 133 19 17 47 40 63 52
62 49 117 103 110 109 -4 4 -7 2 -7 -4z"/>
</g>
</svg>
