<?xml version="1.0" standalone="no"?>
<!DOCTYPE svg PUBLIC "-//W3C//DTD SVG 20010904//EN"
 "http://www.w3.org/TR/2001/REC-SVG-20010904/DTD/svg10.dtd">
<svg version="1.0" xmlns="http://www.w3.org/2000/svg"
 width="883.000000pt" height="840.000000pt" viewBox="0 0 883.000000 840.000000"
 preserveAspectRatio="xMidYMid meet">

<g transform="translate(0.000000,840.000000) scale(0.100000,-0.100000)"
fill="#000000" stroke="none">
<path d="M4040 8384 c-25 -2 -151 -8 -280 -14 -520 -24 -1448 -93 -1497 -111
-31 -11 -63 -66 -63 -106 0 -57 21 -63 313 -90 144 -13 268 -26 275 -28 9 -3
12 -554 12 -2710 0 -1612 -4 -2705 -9 -2705 -21 0 -556 -62 -559 -64 -1 -2
-13 -42 -26 -90 l-24 -86 1358 0 1359 0 20 27 c42 53 39 113 -7 137 -19 10
-137 21 -399 37 l-373 23 0 1148 0 1148 123 0 c67 0 187 5 267 10 815 57 1427
293 1840 710 276 279 428 609 470 1019 28 276 -7 554 -96 769 -70 169 -157
295 -298 430 -251 240 -609 401 -1076 486 -284 51 -384 58 -850 61 -239 1
-455 1 -480 -1z m510 -204 c471 -96 779 -428 885 -955 73 -362 49 -768 -67
-1104 -97 -284 -229 -495 -426 -683 -218 -206 -440 -309 -744 -343 l-58 -6 0
1562 0 1562 153 -6 c94 -4 194 -14 257 -27z"/>
<path d="M8002 2060 c-233 -24 -447 -85 -626 -178 -132 -69 -209 -136 -204
-178 5 -47 35 -54 163 -38 350 44 708 56 858 29 96 -17 163 -48 187 -87 70
-115 4 -434 -204 -992 -72 -191 -75 -221 -31 -232 45 -11 73 5 157 89 231 231
409 598 490 1010 26 136 32 381 9 434 -23 57 -122 100 -293 128 -112 19 -391
27 -506 15z"/>
<path d="M33 1876 c-29 -22 -38 -67 -19 -104 16 -30 180 -180 361 -329 671
-551 1478 -971 2307 -1203 453 -126 880 -195 1414 -227 249 -15 316 -15 517
-5 263 14 458 33 662 62 930 136 1810 461 2490 921 235 159 277 201 277 276 0
63 -64 123 -132 123 -19 0 -73 -16 -120 -36 -915 -381 -1703 -577 -2680 -665
-191 -17 -834 -23 -1056 -10 -1360 81 -2640 456 -3769 1105 -179 104 -216 117
-252 92z"/>
</g>
</svg>
